<?xml version="1.0" encoding="UTF-8" standalone="no"?>
<!-- Generator: Adobe Fireworks 10, Export SVG Extension by Aaron Beall (http://fireworks.abeall.com) . Version: 0.6.1  -->

<svg
   xmlns:dc="http://purl.org/dc/elements/1.1/"
   xmlns:cc="http://creativecommons.org/ns#"
   xmlns:rdf="http://www.w3.org/1999/02/22-rdf-syntax-ns#"
   xmlns:svg="http://www.w3.org/2000/svg"
   xmlns="http://www.w3.org/2000/svg"
   xmlns:sodipodi="http://sodipodi.sourceforge.net/DTD/sodipodi-0.dtd"
   xmlns:inkscape="http://www.inkscape.org/namespaces/inkscape"
   id="Untitled-Page%201"
   viewBox="0 0 113.7094 59.680779"
   version="1.1"
   xml:space="preserve"
   x="0px"
   y="0px"
   width="113.7094"
   height="59.680779"
   inkscape:version="0.91 r13725"
   sodipodi:docname="logo.svg"><metadata
   id="metadata53"><rdf:RDF><cc:Work
       rdf:about=""><dc:format>image/svg+xml</dc:format><dc:type
         rdf:resource="http://purl.org/dc/dcmitype/StillImage" /><dc:title></dc:title></cc:Work></rdf:RDF></metadata><defs
   id="defs51" /><sodipodi:namedview
   pagecolor="#ffffff"
   bordercolor="#666666"
   borderopacity="1"
   objecttolerance="10"
   gridtolerance="10"
   guidetolerance="10"
   inkscape:pageopacity="0"
   inkscape:pageshadow="2"
   inkscape:window-width="1920"
   inkscape:window-height="1027"
   id="namedview49"
   showgrid="false"
   fit-margin-top="0"
   fit-margin-left="0"
   fit-margin-right="0"
   fit-margin-bottom="0"
   inkscape:zoom="1.4707821"
   inkscape:cx="-22.486884"
   inkscape:cy="-106.76459"
   inkscape:window-x="-8"
   inkscape:window-y="-8"
   inkscape:window-maximized="1"
   inkscape:current-layer="Untitled-Page%201" />
	
	
	
	
	<g
   id="g4205"
   transform="translate(-115.3261,11.49008)"><path
     id="path3"
     d="m 210.0046,0 c 2.9525,0.2138 5.8961,0.5285 8.8232,0.965 4.3642,9.1151 7.7326,18.671 10.2077,28.4622 -9.5369,0.1986 -19.0763,0.2626 -28.6149,0.2626 2.0465,-6.5919 4.0918,-13.1855 6.1333,-19.7795 2.5689,0.0677 5.1361,0.1795 7.7017,0.3404 -0.8376,3.9967 -1.7351,7.9803 -2.6806,11.952 2.6428,0.0386 5.2851,0.0919 7.9288,0.1614 C 216.7447,14.7437 213.6246,7.2558 210.0046,0 l 0,0 0,0 z"
     inkscape:connector-curvature="0"
     style="fill:#eb520d" /><path
     id="path5"
     d="m 189.9904,0.4586 c 1.9902,-0.2177 4.0279,-0.3142 6.0044,0.0656 1.2938,0.2756 2.5189,0.8405 3.3077,1.9389 0.8495,1.28 1.0069,2.8754 0.9802,4.3752 -0.0255,1.2987 -0.3789,2.5601 -1.0129,3.6923 -0.802,1.3609 -2.0097,2.4089 -3.2911,3.3091 1.5369,0.5729 2.8855,1.4879 3.9429,2.7446 0.9624,1.1992 1.5582,2.638 1.5535,4.1898 -0.006,1.9029 -0.3489,3.8651 -1.4793,5.4402 -1.0141,1.3279 -2.3983,2.2259 -3.9921,2.7121 -1.9367,0.5513 -3.9519,0.713 -5.9598,0.7054 -3.8096,-0.0339 -7.6189,-0.0813 -11.4268,-0.1512 -0.0298,-2.4732 -0.008,-4.9481 0.0695,-7.4218 3.303,-0.1482 6.6078,-0.2562 9.9138,-0.3362 0.4913,-0.0178 0.9594,-0.1677 1.3069,-0.5276 0.2924,-0.3231 0.4842,-0.7278 0.4901,-1.1678 0.0119,-0.9692 -0.5733,-1.5133 -1.5327,-1.4968 -3.3535,0.1274 -6.7057,0.2964 -10.0533,0.5306 0.1218,-2.3552 0.2928,-4.7077 0.5215,-7.0556 3.2466,-0.4184 6.5033,-0.7253 9.7694,-0.9548 0.5092,-0.0432 0.928,-0.3023 1.2298,-0.7093 0.3131,-0.4462 0.4913,-0.9658 0.524,-1.5095 0.0314,-0.5149 -0.0518,-1.0365 -0.3297,-1.4782 -0.2644,-0.3904 -0.6726,-0.5542 -1.136,-0.5212 -3.2138,0.2841 -6.4205,0.6639 -9.606,1.1797 0.2643,-2.0299 0.5733,-4.0531 0.9416,-6.0669 3.0624,-0.6461 6.1558,-1.1271 9.2644,-1.4866 l 0,0 0,0 z"
     inkscape:connector-curvature="0"
     style="fill:#eb520d" /><path
     id="path7"
     d="m 139.4116,5.7967 c 2.49,0 4.9795,-4e-4 7.4687,-4e-4 2.599,7.7372 5.1968,15.4741 7.7958,23.2101 -6.5139,0.0017 -13.0279,0.0017 -19.5418,0.0017 -0.5861,0.2087 -1.1602,0.4475 -1.7496,0.6461 1.6469,-4.9232 2.7786,-10.0005 3.2725,-15.1696 0.0645,0.008 0.1295,0.0178 0.1939,0.0245 1.806,0 3.6119,0 5.4171,-4e-4 -0.7783,3.0436 -1.5565,6.0876 -2.3356,9.1316 2.0496,0 4.0991,0 6.1474,0 -2.2227,-5.9475 -4.4454,-11.8962 -6.6684,-17.8436 l 0,0 0,0 z"
     inkscape:connector-curvature="0"
     style="fill:#eb520d" /><path
     id="path9"
     d="m 128.6195,10.2672 c 0.1914,0.4912 0.3916,0.979 0.6428,1.4431 0.7303,1.3266 1.5157,2.6227 2.2762,3.9315 0.7234,1.2554 1.3799,2.5566 1.8284,3.9379 0.3416,1.1026 0.4485,2.2598 0.3662,3.4115 -0.0866,1.1987 -0.4035,2.3635 -0.9127,3.4513 -0.5406,1.1086 -1.2968,2.0765 -2.2473,2.8649 -1.0702,0.8537 -2.322,1.3842 -3.6633,1.6421 -2.5129,0.4565 -5.0436,0.7913 -7.5837,1.0505 0.1732,-2.0702 0.3047,-4.1437 0.401,-6.2185 2.3381,-0.1363 4.6736,-0.3095 7.0045,-0.5394 0.5597,-0.0652 1.0226,-0.3586 1.377,-0.7884 0.3772,-0.4831 0.5805,-1.0624 0.6119,-1.6717 0.0322,-0.6254 -0.1248,-1.2373 -0.3921,-1.7991 -0.5644,-1.095 -1.276,-2.1116 -1.991,-3.1122 -0.8126,-1.1322 -1.64,-2.2556 -2.4361,-3.3993 -0.6412,-0.9315 -1.1678,-1.9333 -1.6337,-2.9618 -0.4918,-1.1141 -0.8054,-2.2959 -0.8822,-3.5132 -0.039,-0.6279 0.0828,-1.2682 0.1859,-1.8847 0.1218,-0.6762 0.3335,-1.3308 0.6611,-1.9359 0.5779,-1.0145 1.4576,-1.7564 2.546,-2.1781 1.1941,-0.4247 2.4616,-0.381 3.6798,-0.0859 0.7574,0.1918 1.5106,0.3997 2.2575,0.6271 0.8215,1.8072 1.573,3.6448 2.2515,5.51 -1.0282,-0.2388 -2.0644,-0.4442 -3.1032,-0.6283 -0.4442,-0.0704 -0.8414,0.0757 -1.1274,0.4225 -0.3302,0.4315 -0.407,0.9764 -0.3675,1.5053 0.0246,0.3201 0.1447,0.6191 0.2504,0.9188 l 0,0 0,0 z"
     inkscape:connector-curvature="0"
     style="fill:#eb520d" /><path
     id="path11"
     d="m 169.6212,13.1707 c -0.7426,5.3224 -1.0456,10.689 -0.9654,16.0609 -1.3575,-0.0474 -2.7132,-0.099 -4.0677,-0.1672 -0.0819,-4.9113 0.23,-9.8167 0.9815,-14.6726 1.3278,-0.4789 2.6839,-0.8727 4.0516,-1.2211 l 0,0 0,0 z m 3.7413,-9.2367 c 1.298,-0.4247 2.9865,-0.8172 4.1615,0.1148 1.1508,1.0399 1.0396,2.8006 0.8626,4.2021 -0.9327,7.0293 -1.2963,14.1149 -1.2191,21.203 -2.1166,-0.0427 -4.2314,-0.0918 -6.3476,-0.1541 -0.0773,-5.5604 0.2168,-11.1162 0.9386,-16.6309 0.0862,-0.6351 0.1825,-1.2715 0.2317,-1.9114 0.0161,-0.2379 0.0369,-0.5262 -0.101,-0.7346 -0.1218,-0.1617 -0.3327,-0.1732 -0.5185,-0.1528 -0.432,0.0558 -0.8555,0.1854 -1.2713,0.3112 -1.329,0.4061 -2.6211,0.8955 -3.9149,1.3998 -1.0677,0 -2.1357,0 -3.2033,0 0,5.8082 0,11.6175 0.001,17.4253 -2.3168,0 -4.6328,0 -6.9505,0 -9e-4,-7.736 -0.001,-15.4733 -0.002,-23.2105 4.2318,0 8.4646,0 12.699,0 1.5178,-0.6911 3.0535,-1.3232 4.6337,-1.8619 l 0,0 0,0 z"
     inkscape:connector-curvature="0"
     style="fill:#eb520d" /></g>
	
	
	
	
	
	
	
	
	
	
	<g
   id="g4192"
   transform="matrix(0.56875185,0,0,0.56875185,-64.578946,14.758672)"><path
     style="fill:#eb520d"
     inkscape:connector-curvature="0"
     id="path13"
     d="m 227.94063,-11.192629 0.002,-9.1605 -8.6829,0 -0.002,-5.504 -4.4223,0 -0.003,14.667 4.4255,0 0,-4.7747 4.2271,0 -0.003,4.7722 4.4589,0 0,0 0,0 z" /><path
     style="fill:#eb520d"
     inkscape:connector-curvature="0"
     id="path15"
     d="m 227.94303,-25.853029 -4.4223,0 0,3.6558 4.4223,9e-4 0,-3.6567 0,0 0,0 z" /><path
     style="fill:#eb520d"
     inkscape:connector-curvature="0"
     id="path17"
     d="m 157.03743,-25.949229 c 1.4778,0 2.5286,0.2845 3.1531,0.8551 0.6247,0.5698 0.9385,1.5074 0.9385,2.812 l 0,11.0455 -4.7035,0.0016 0,-9.4555 c 0,-0.5714 -0.0255,-0.9561 -0.0725,-1.1516 -0.0478,-0.1956 -0.1593,-0.3182 -0.3322,-0.3671 -0.1729,-0.0488 -0.5186,-0.0729 -1.0388,-0.0729 l -2.2315,0 0,11.0471 -4.353,0 -0.002,-14.7142 8.6422,0 0,0 0,0 z" /><path
     style="fill:#eb520d"
     inkscape:connector-curvature="0"
     id="path19"
     d="m 168.13653,-25.949229 c 1.3074,0 2.3438,0.1194 3.1118,0.3582 0.7664,0.2388 1.3224,0.6459 1.6674,1.2213 0.3458,0.5746 0.5187,1.3728 0.5187,2.3937 0,0.686 -0.1451,1.3087 -0.4382,1.8681 -0.2916,0.5585 -0.7871,1.0842 -1.489,1.5771 0.7449,0.2981 1.3527,0.7445 1.8267,1.3375 0.4741,0.5938 0.7107,1.2397 0.7107,1.9377 0,1.0466 -0.2183,1.8657 -0.6549,2.4571 -0.435,0.5914 -1.0349,1.0001 -1.7956,1.2245 -0.7632,0.2252 -1.689,0.3381 -2.7772,0.3381 l -6.0133,0 0,-3.6678 5.2923,0 c 0.2716,0 0.4811,-0.0778 0.6301,-0.2325 0.149,-0.1546 0.2247,-0.3349 0.2247,-0.5401 0,-0.4872 -0.2549,-0.7293 -0.764,-0.7293 l -5.3831,0 -0.002,-3.6671 5.3369,0 c 0.2509,0 0.4501,-0.1074 0.5943,-0.3213 0.145,-0.214 0.2175,-0.4681 0.2175,-0.7621 0,-0.3086 -0.0725,-0.5738 -0.2151,-0.795 -0.1418,-0.2204 -0.3409,-0.3318 -0.5967,-0.3318 l -5.3369,8e-4 0,-3.6671 5.3345,0 0,0 0,0 z" /><path
     style="fill:#eb520d"
     inkscape:connector-curvature="0"
     id="path21"
     d="m 175.32163,-25.949229 4.3753,0 8e-4,9.3698 c 0.002,0.4143 0.0446,0.7252 0.1315,0.9344 0.0876,0.2075 0.2493,0.3534 0.4891,0.4391 0.2382,0.0834 0.6023,0.1266 1.0907,0.1266 l 2.6879,-8e-4 -0.003,-10.8691 4.3554,0 0,14.7142 -8.7498,0 c -0.9982,0 -1.7957,-0.1211 -2.3964,-0.3638 -0.6006,-0.2437 -1.0404,-0.5883 -1.32,-1.033 -0.2789,-0.4464 -0.4605,-0.9665 -0.5394,-1.5587 -0.0796,-0.5939 -0.1203,-1.3464 -0.1203,-2.2607 l -0.002,-9.498 0,0 0,0 z" /><path
     style="fill:#eb520d"
     inkscape:connector-curvature="0"
     id="path23"
     d="m 142.48393,-25.949229 4.4358,0 0,3.6655 -4.4342,0 -0.002,-3.6655 0,0 0,0 z m 4.4358,5.5199 0,9.1854 -4.4334,0 -8e-4,-9.1854 4.4342,0 0,0 0,0 z" /><path
     style="fill:#eb520d"
     inkscape:connector-curvature="0"
     id="path25"
     d="m 113.54503,-25.949229 12.6686,0 8e-4,3.6647 -12.6686,0 -8e-4,-3.6647 0,0 0,0 z m 12.6694,5.5183 0,3.6647 -7.2927,0 0,1.8544 7.2935,0 0,3.6648 -12.6686,0 -8e-4,-9.1823 12.6686,-0.0016 0,0 0,0 z" /><path
     style="fill:#eb520d"
     inkscape:connector-curvature="0"
     id="path27"
     d="m 127.69143,-22.286129 -8e-4,-3.6631 6.6036,0 c 2.1613,0 3.7921,0.5746 4.8907,1.7237 0.7178,0.7357 1.2619,1.5796 1.6316,2.5316 0.3704,0.9521 0.5656,1.9298 0.5871,2.9355 0,0.8559 -0.1163,1.6845 -0.3505,2.4859 -0.2343,0.8037 -0.5601,1.5186 -0.9815,2.1469 -0.4183,0.6283 -0.9034,1.1147 -1.4523,1.4601 -0.7529,0.452 -1.5982,0.8006 -2.5334,1.0458 -0.9353,0.2444 -1.8316,0.3654 -2.6896,0.3654 l -5.7041,0 -8e-4,-9.2215 4.388,-8e-4 0,5.6922 c 1.1385,0 2.0769,-0.1787 2.8146,-0.5385 0.7362,-0.3582 1.2699,-0.8278 1.6022,-1.4056 0.3314,-0.5778 0.4971,-1.2093 0.4971,-1.8953 0,-0.6403 -0.1267,-1.2397 -0.3792,-1.8015 -0.2534,-0.5626 -0.6119,-1.0129 -1.0747,-1.3527 -0.4613,-0.339 -0.9887,-0.5081 -1.5766,-0.5081 l -6.2714,0 0,0 0,0 z" /><path
     style="fill:#eb520d"
     inkscape:connector-curvature="0"
     id="path29"
     d="m 195.85813,-15.197929 c 0,-0.6916 -0.1227,-1.1291 -0.3713,-1.311 -0.2477,-0.1836 -0.6636,-0.2749 -1.246,-0.2749 l -4.3139,0 0,-3.6559 5.9312,0 c 0.2645,0 0.4684,-0.0866 0.6134,-0.2605 0.1474,-0.1747 0.2199,-0.3887 0.2199,-0.6427 0,-0.2724 -0.0725,-0.4976 -0.2143,-0.6772 -0.1426,-0.1794 -0.349,-0.2692 -0.619,-0.2692 l -5.9336,0 0,-3.6551 7.4895,0 c 0.8588,0 1.5917,0.1947 2.2027,0.5826 0.6103,0.3895 1.0708,0.8975 1.3831,1.5242 0.3091,0.6275 0.4628,1.2902 0.4652,1.989 0,0.6139 -0.1251,1.1909 -0.376,1.731 -0.2486,0.5418 -0.619,0.9753 -1.1074,1.3015 -0.4907,0.3261 -1.0787,0.4896 -1.7622,0.4896 -0.0558,0 -0.1004,0.0152 -0.1283,0.0425 0.0893,0.0144 0.3155,0.0569 0.6748,0.1298 0.3601,0.0706 0.6947,0.2148 1.007,0.4312 0.3091,0.2172 0.4652,0.5305 0.4652,0.9392 l 0,5.5055 -4.3776,0 -0.002,-3.9196 0,0 0,0 z" /><path
     style="fill:#eb520d"
     inkscape:connector-curvature="0"
     id="path31"
     d="m 210.20363,-20.352429 3.636,0 0,3.6551 -3.636,0 0,-3.6551 0,0 0,0 z" /><path
     style="fill:#eb520d"
     inkscape:connector-curvature="0"
     id="path33"
     d="m 213.83723,-22.202029 -3.9817,0 c -1.1576,0 -2.0467,0.3799 -2.6656,1.1396 -0.6167,0.7589 -0.9258,1.6709 -0.9258,2.7359 0.0168,0.6668 0.1673,1.2927 0.4517,1.8793 0.2812,0.585 0.6939,1.057 1.2348,1.4152 0.5386,0.3582 1.1743,0.5377 1.9049,0.5377 0.8277,0 1.6005,-0.1715 2.3223,-0.516 0.7225,-0.3438 1.277,-0.8319 1.6618,-1.4666 l 0,4.0743 c -0.8309,0.9544 -2.1717,1.4312 -4.0263,1.4312 -1.2572,0 -2.3813,-0.1891 -3.3707,-0.5698 -0.9903,-0.379 -1.8212,-0.9207 -2.4928,-1.6228 -0.6748,-0.702 -1.1823,-1.5386 -1.528,-2.5051 -0.3434,-0.9672 -0.5162,-2.0291 -0.5162,-3.1831 0,-0.9063 0.1505,-1.7782 0.4493,-2.6157 0.2979,-0.8366 0.7584,-1.5859 1.3774,-2.2463 0.6158,-0.6619 1.4021,-1.1836 2.3502,-1.5675 0.9512,-0.3839 2.0554,-0.5754 3.3125,-0.5754 l 4.4422,0 0,3.6551 0,0 0,0 z" /></g>
	
	
	
	
	
	
	<g
   id="g4212"
   transform="matrix(0.95249159,0,0,0.95249159,-172.03808,37.016336)"><path
     id="path35"
     d="m 271.8957,10.974 c 1.1286,0 2.1768,0.2895 3.1479,0.8676 0.973,0.5782 1.743,1.3588 2.3145,2.3419 0.5719,0.9832 0.8578,2.0452 0.8578,3.1837 0,1.1495 -0.2859,2.2182 -0.8578,3.2073 -0.5693,0.9886 -1.3415,1.7724 -2.3131,2.3514 -0.9707,0.5795 -2.0207,0.869 -3.148,0.869 -1.1429,0 -2.2038,-0.2895 -3.1808,-0.869 -0.9775,-0.579 -1.7493,-1.3646 -2.3194,-2.3541 -0.5715,-0.9895 -0.8557,-2.0574 -0.8557,-3.2046 0,-1.1349 0.2842,-2.1955 0.8543,-3.1809 0.5697,-0.985 1.3433,-1.7665 2.3208,-2.3447 0.977,-0.5781 2.0365,-0.8676 3.1795,-0.8676 l 0,0 0,0 z m 0,3.6893 c -0.7406,0 -1.3703,0.2633 -1.8931,0.7888 -0.5241,0.5274 -0.7862,1.1658 -0.7844,1.9151 0,0.5025 0.12,0.9633 0.3582,1.3819 0.2385,0.42 0.5651,0.7507 0.9787,0.9935 0.4137,0.242 0.8607,0.3639 1.3419,0.3639 0.7168,0 1.3343,-0.2673 1.8503,-0.8006 0.5147,-0.5355 0.7736,-1.1816 0.7736,-1.9387 0,-0.4883 -0.1182,-0.9396 -0.355,-1.3533 -0.2368,-0.4159 -0.5558,-0.7448 -0.9617,-0.9872 -0.4023,-0.2419 -0.8398,-0.3634 -1.3085,-0.3634 l 0,0 0,0 z"
     inkscape:connector-curvature="0"
     style="fill:#eb520d" /><path
     id="path37"
     d="m 285.3297,10.974 c 1.1272,0 2.1764,0.2891 3.148,0.8667 0.9706,0.5782 1.7429,1.3593 2.3121,2.3428 0.5728,0.9832 0.8588,2.0443 0.8588,3.1837 0,1.1495 -0.286,2.2182 -0.8565,3.2073 -0.5715,0.9868 -1.3429,1.771 -2.3144,2.3514 -0.9716,0.5795 -2.0208,0.869 -3.148,0.869 -1.1416,0 -2.2026,-0.2895 -3.1796,-0.869 -0.9769,-0.579 -1.751,-1.3646 -2.3206,-2.3541 -0.5706,-0.9895 -0.8548,-2.0583 -0.8548,-3.2046 -9e-4,-1.1362 0.2842,-2.1955 0.8548,-3.1809 0.5696,-0.9859 1.3409,-1.7674 2.3188,-2.3456 0.9775,-0.5776 2.0375,-0.8667 3.1814,-0.8667 l 0,0 0,0 z m 0,3.6889 c -0.7402,0 -1.3726,0.2628 -1.8954,0.7892 -0.5223,0.5265 -0.7844,1.1644 -0.7844,1.9151 0,0.5025 0.1209,0.9633 0.359,1.3819 0.24,0.42 0.5653,0.7507 0.978,0.9935 0.4136,0.242 0.8619,0.3625 1.3428,0.3625 0.7176,0 1.3346,-0.2664 1.8516,-0.8001 0.5142,-0.5346 0.7722,-1.1807 0.7722,-1.9378 0,-0.4883 -0.1182,-0.9396 -0.3559,-1.3551 -0.2345,-0.4145 -0.5534,-0.743 -0.9598,-0.9854 -0.4042,-0.2428 -0.8408,-0.3638 -1.3081,-0.3638 l 0,0 0,0 z"
     inkscape:connector-curvature="0"
     style="fill:#eb520d" /><path
     id="path39"
     d="m 239.7972,13.1873 c 0.1105,0.2478 0.2242,0.4797 0.3789,0.6977 0.341,0.4821 0.862,1.1209 1.5611,1.9187 0.701,0.7974 1.2175,1.4843 1.549,2.0587 0.3315,0.5759 0.4988,1.2016 0.4988,1.8775 0,0.667 -0.188,1.2872 -0.5607,1.858 -0.3738,0.5691 -0.9187,1.0245 -1.6337,1.3606 -0.7167,0.3362 -1.5566,0.5047 -2.5214,0.5047 l -4.3225,0 -0.001,-2.9857 3.8521,0 c 0.336,0 0.6188,-0.1078 0.8462,-0.3244 0.2287,-0.2165 0.3441,-0.4857 0.3441,-0.8078 0,-0.2958 -0.1041,-0.5962 -0.3094,-0.8998 -0.2418,-0.3402 -0.6662,-0.8458 -1.2774,-1.5177 -0.6094,-0.6715 -1.0672,-1.1948 -1.3717,-1.5672 -0.3049,-0.3738 -0.5809,-0.8182 -0.8304,-1.337 -0.2494,-0.5178 -0.3726,-1.0579 -0.3726,-1.6206 0,-0.1903 0.0537,-0.4956 0.1642,-0.9175 0.0929,-0.347 0.2382,-0.6864 0.4466,-1.0035 0.3744,-0.5709 0.9188,-1.0244 1.6342,-1.3615 0.7167,-0.3361 1.5566,-0.5051 2.5196,-0.5051 l 1.7506,0 1.2724,2.9861 -2.5494,0 c -0.3378,0 -0.6188,0.1079 -0.848,0.324 -0.2273,0.2165 -0.3423,0.4861 -0.3423,0.8082 0,0.1672 0.0568,0.2837 0.1231,0.4536 l 0,0 0,0 z"
     inkscape:connector-curvature="0"
     style="fill:#eb520d" /><path
     id="path41"
     d="m 250.7788,11.3034 2.1957,0 0,3.1049 -0.8304,0 c -0.6896,0 -1.345,0.0919 -1.9621,0.2759 -0.6157,0.1844 -1.1209,0.4929 -1.5124,0.9265 -0.3934,0.435 -0.5904,0.9959 -0.5904,1.6868 0.001,0.81 0.1781,1.4493 0.5336,1.9137 0.3549,0.4653 0.8254,0.7852 1.4145,0.961 0.5873,0.1744 1.2801,0.2632 2.0776,0.2632 l 0.8714,0 0,3.0315 -3.1403,0 c -1.0148,0 -1.8944,-0.1985 -2.6333,-0.5958 -0.7401,-0.3965 -1.3337,-0.9084 -1.7821,-1.5382 -0.447,-0.6279 -0.7767,-1.2939 -0.9869,-1.9948 -0.2084,-0.7018 -0.3171,-1.3579 -0.3252,-1.9709 0,-1.1702 0.2701,-2.2168 0.8114,-3.1393 0.5399,-0.921 1.3167,-1.6391 2.332,-2.1529 1.0117,-0.5138 2.1881,-0.7716 3.5269,-0.7716 l 0,0 0,0 z"
     inkscape:connector-curvature="0"
     style="fill:#eb520d" /><path
     id="path43"
     d="m 296.1006,11.3025 9e-4,9.1316 3.8985,0 0,3.0318 -7.5936,0 0,-12.1634 3.6942,0 0,0 0,0 z"
     inkscape:connector-curvature="0"
     style="fill:#eb520d" /><path
     id="path45"
     d="m 264.9633,23.4419 0.003,-7.5893 -7.2053,0 -0.003,-4.5605 -3.6689,-9e-4 -0.001,12.1516 3.6703,0 0,-3.9548 3.508,0 -0.003,3.9539 3.7005,0 0,0 0,0 z"
     inkscape:connector-curvature="0"
     style="fill:#eb520d" /><path
     id="path47"
     d="m 264.9665,11.2953 -3.6703,0 0,3.0296 3.6689,9e-4 10e-4,-3.0305 0,0 0,0 z"
     inkscape:connector-curvature="0"
     style="fill:#eb520d" /></g>
</svg>