<?xml version="1.0" encoding="UTF-8" standalone="no"?>
<!-- Generator: Adobe Fireworks 10, Export SVG Extension by Aaron Beall (http://fireworks.abeall.com) . Version: 0.6.1  -->

<svg
   xmlns:dc="http://purl.org/dc/elements/1.1/"
   xmlns:cc="http://creativecommons.org/ns#"
   xmlns:rdf="http://www.w3.org/1999/02/22-rdf-syntax-ns#"
   xmlns:svg="http://www.w3.org/2000/svg"
   xmlns="http://www.w3.org/2000/svg"
   xmlns:sodipodi="http://sodipodi.sourceforge.net/DTD/sodipodi-0.dtd"
   xmlns:inkscape="http://www.inkscape.org/namespaces/inkscape"
   id="Untitled-Page%201"
   viewBox="0 0 300 32"
   version="1.1"
   xml:space="preserve"
   x="0px"
   y="0px"
   width="300px"
   height="32px"
   inkscape:version="0.91 r13725"
   sodipodi:docname="logo-horizontal.svg"
   style="background-color:#ffffff00"><metadata
   id="metadata53"><rdf:RDF><cc:Work
       rdf:about=""><dc:format>image/svg+xml</dc:format><dc:type
         rdf:resource="http://purl.org/dc/dcmitype/StillImage" /><dc:title></dc:title></cc:Work></rdf:RDF></metadata><defs
   id="defs51" /><sodipodi:namedview
   pagecolor="#ffffff"
   bordercolor="#666666"
   borderopacity="1"
   objecttolerance="10"
   gridtolerance="10"
   guidetolerance="10"
   inkscape:pageopacity="0"
   inkscape:pageshadow="2"
   inkscape:window-width="1920"
   inkscape:window-height="1027"
   id="namedview49"
   showgrid="false"
   inkscape:zoom="1.4707821"
   inkscape:cx="-22.486884"
   inkscape:cy="-106.76459"
   inkscape:window-x="-8"
   inkscape:window-y="-8"
   inkscape:window-maximized="1"
   inkscape:current-layer="Untitled-Page%201" />
	<path
   d="M 210.0046 0 C 212.9571 0.2138 215.9007 0.5285 218.8278 0.965 C 223.192 10.0801 226.5604 19.636 229.0355 29.4272 C 219.4986 29.6258 209.9592 29.6898 200.4206 29.6898 C 202.4671 23.0979 204.5124 16.5043 206.5539 9.9103 C 209.1228 9.978 211.69 10.0898 214.2556 10.2507 C 213.418 14.2474 212.5205 18.231 211.575 22.2027 C 214.2178 22.2413 216.8601 22.2946 219.5038 22.3641 C 216.7447 14.7437 213.6246 7.2558 210.0046 0 L 210.0046 0 L 210.0046 0 Z"
   fill="#eb520d"
   id="path3" />
	<path
   d="M 189.9904 0.4586 C 191.9806 0.2409 194.0183 0.1444 195.9948 0.5242 C 197.2886 0.7998 198.5137 1.3647 199.3025 2.4631 C 200.152 3.7431 200.3094 5.3385 200.2827 6.8383 C 200.2572 8.137 199.9038 9.3984 199.2698 10.5306 C 198.4678 11.8915 197.2601 12.9395 195.9787 13.8397 C 197.5156 14.4126 198.8642 15.3276 199.9216 16.5843 C 200.884 17.7835 201.4798 19.2223 201.4751 20.7741 C 201.4691 22.677 201.1262 24.6392 199.9958 26.2143 C 198.9817 27.5422 197.5975 28.4402 196.0037 28.9264 C 194.067 29.4777 192.0518 29.6394 190.0439 29.6318 C 186.2343 29.5979 182.425 29.5505 178.6171 29.4806 C 178.5873 27.0074 178.6094 24.5325 178.6866 22.0588 C 181.9896 21.9106 185.2944 21.8026 188.6004 21.7226 C 189.0917 21.7048 189.5598 21.5549 189.9073 21.195 C 190.1997 20.8719 190.3915 20.4672 190.3974 20.0272 C 190.4093 19.058 189.8241 18.5139 188.8647 18.5304 C 185.5112 18.6578 182.159 18.8268 178.8114 19.061 C 178.9332 16.7058 179.1042 14.3533 179.3329 12.0054 C 182.5795 11.587 185.8362 11.2801 189.1023 11.0506 C 189.6115 11.0074 190.0303 10.7483 190.3321 10.3413 C 190.6452 9.8951 190.8234 9.3755 190.8561 8.8318 C 190.8875 8.3169 190.8043 7.7953 190.5264 7.3536 C 190.262 6.9632 189.8538 6.7994 189.3904 6.8324 C 186.1766 7.1165 182.9699 7.4963 179.7844 8.0121 C 180.0487 5.9822 180.3577 3.959 180.726 1.9452 C 183.7884 1.2991 186.8818 0.8181 189.9904 0.4586 L 189.9904 0.4586 L 189.9904 0.4586 Z"
   fill="#eb520d"
   id="path5" />
	<path
   d="M 139.4116 5.7967 C 141.9016 5.7967 144.3911 5.7963 146.8803 5.7963 C 149.4793 13.5335 152.0771 21.2704 154.6761 29.0064 C 148.1622 29.0081 141.6482 29.0081 135.1343 29.0081 C 134.5482 29.2168 133.9741 29.4556 133.3847 29.6542 C 135.0316 24.731 136.1633 19.6537 136.6572 14.4846 C 136.7217 14.4926 136.7867 14.5024 136.8511 14.5091 C 138.6571 14.5091 140.463 14.5091 142.2682 14.5087 C 141.4899 17.5523 140.7117 20.5963 139.9326 23.6403 C 141.9822 23.6403 144.0317 23.6403 146.08 23.6403 C 143.8573 17.6928 141.6346 11.7441 139.4116 5.7967 L 139.4116 5.7967 L 139.4116 5.7967 Z"
   fill="#eb520d"
   id="path7" />
	<path
   d="M 128.6195 10.2672 C 128.8109 10.7584 129.0111 11.2462 129.2623 11.7103 C 129.9926 13.0369 130.778 14.333 131.5385 15.6418 C 132.2619 16.8972 132.9184 18.1984 133.3669 19.5797 C 133.7085 20.6823 133.8154 21.8395 133.7331 22.9912 C 133.6465 24.1899 133.3296 25.3547 132.8204 26.4425 C 132.2798 27.5511 131.5236 28.519 130.5731 29.3074 C 129.5029 30.1611 128.2511 30.6916 126.9098 30.9495 C 124.3969 31.406 121.8662 31.7408 119.3261 32 C 119.4993 29.9298 119.6308 27.8563 119.7271 25.7815 C 122.0652 25.6452 124.4007 25.472 126.7316 25.2421 C 127.2913 25.1769 127.7542 24.8835 128.1086 24.4537 C 128.4858 23.9706 128.6891 23.3913 128.7205 22.782 C 128.7527 22.1566 128.5957 21.5447 128.3284 20.9829 C 127.764 19.8879 127.0524 18.8713 126.3374 17.8707 C 125.5248 16.7385 124.6974 15.6151 123.9013 14.4714 C 123.2601 13.5399 122.7335 12.5381 122.2676 11.5096 C 121.7758 10.3955 121.4622 9.2137 121.3854 7.9964 C 121.3464 7.3685 121.4682 6.7282 121.5713 6.1117 C 121.6931 5.4355 121.9048 4.7809 122.2324 4.1758 C 122.8103 3.1613 123.69 2.4194 124.7784 1.9977 C 125.9725 1.573 127.24 1.6167 128.4582 1.9118 C 129.2156 2.1036 129.9688 2.3115 130.7157 2.5389 C 131.5372 4.3461 132.2887 6.1837 132.9672 8.0489 C 131.939 7.8101 130.9028 7.6047 129.864 7.4206 C 129.4198 7.3502 129.0226 7.4963 128.7366 7.8431 C 128.4064 8.2746 128.3296 8.8195 128.3691 9.3484 C 128.3937 9.6685 128.5138 9.9675 128.6195 10.2672 L 128.6195 10.2672 L 128.6195 10.2672 Z"
   fill="#eb520d"
   id="path9" />
	<path
   d="M 169.6212 13.1707 C 168.8786 18.4931 168.5756 23.8597 168.6558 29.2316 C 167.2983 29.1842 165.9426 29.1326 164.5881 29.0644 C 164.5062 24.1531 164.8181 19.2477 165.5696 14.3918 C 166.8974 13.9129 168.2535 13.5191 169.6212 13.1707 L 169.6212 13.1707 L 169.6212 13.1707 ZM 173.3625 3.934 C 174.6605 3.5093 176.349 3.1168 177.524 4.0488 C 178.6748 5.0887 178.5636 6.8494 178.3866 8.2509 C 177.4539 15.2802 177.0903 22.3658 177.1675 29.4539 C 175.0509 29.4112 172.9361 29.3621 170.8199 29.2998 C 170.7426 23.7394 171.0367 18.1836 171.7585 12.6689 C 171.8447 12.0338 171.941 11.3974 171.9902 10.7575 C 172.0063 10.5196 172.0271 10.2313 171.8892 10.0229 C 171.7674 9.8612 171.5565 9.8497 171.3707 9.8701 C 170.9387 9.9259 170.5152 10.0555 170.0994 10.1813 C 168.7704 10.5874 167.4783 11.0768 166.1845 11.5811 C 165.1168 11.5811 164.0488 11.5811 162.9812 11.5811 C 162.9812 17.3893 162.9812 23.1986 162.9824 29.0064 C 160.6656 29.0064 158.3496 29.0064 156.0319 29.0064 C 156.031 21.2704 156.0306 13.5331 156.0298 5.7959 C 160.2616 5.7959 164.4944 5.7959 168.7288 5.7959 C 170.2466 5.1048 171.7823 4.4727 173.3625 3.934 L 173.3625 3.934 L 173.3625 3.934 Z"
   fill="#eb520d"
   id="path11" />
	<path
   d="M 114.3956 23.4828 L 114.398 14.3223 L 105.7151 14.3223 L 105.7127 8.8183 L 101.2904 8.8183 L 101.2872 23.4853 L 105.7127 23.4853 L 105.7127 18.7106 L 109.9398 18.7106 L 109.9367 23.4828 L 114.3956 23.4828 L 114.3956 23.4828 L 114.3956 23.4828 Z"
   id="path13"
   fill="#eb520d" />
	<path
   d="M 114.398 8.8224 L 109.9757 8.8224 L 109.9757 12.4782 L 114.398 12.4791 L 114.398 8.8224 L 114.398 8.8224 L 114.398 8.8224 Z"
   id="path15"
   fill="#eb520d" />
	<path
   d="M 43.4924 8.7262 C 44.9702 8.7262 46.021 9.0107 46.6455 9.5813 C 47.2702 10.1511 47.584 11.0887 47.584 12.3933 L 47.584 23.4388 L 42.8805 23.4404 L 42.8805 13.9849 C 42.8805 13.4135 42.855 13.0288 42.808 12.8333 C 42.7602 12.6377 42.6487 12.5151 42.4758 12.4662 C 42.3029 12.4174 41.9572 12.3933 41.437 12.3933 L 39.2055 12.3933 L 39.2055 23.4404 L 34.8525 23.4404 L 34.8502 8.7262 L 43.4924 8.7262 L 43.4924 8.7262 L 43.4924 8.7262 Z"
   id="path17"
   fill="#eb520d" />
	<path
   d="M 54.5915 8.7262 C 55.8989 8.7262 56.9353 8.8456 57.7033 9.0844 C 58.4697 9.3232 59.0257 9.7303 59.3707 10.3057 C 59.7165 10.8803 59.8894 11.6785 59.8894 12.6994 C 59.8894 13.3854 59.7443 14.0081 59.4512 14.5675 C 59.1596 15.126 58.6641 15.6517 57.9622 16.1446 C 58.7071 16.4427 59.3149 16.8891 59.7889 17.4821 C 60.263 18.0759 60.4996 18.7218 60.4996 19.4198 C 60.4996 20.4664 60.2813 21.2855 59.8447 21.8769 C 59.4097 22.4683 58.8098 22.877 58.0491 23.1014 C 57.2859 23.3266 56.3601 23.4395 55.2719 23.4395 L 49.2586 23.4395 L 49.2586 19.7717 L 54.5509 19.7717 C 54.8225 19.7717 55.032 19.6939 55.181 19.5392 C 55.33 19.3846 55.4057 19.2043 55.4057 18.9991 C 55.4057 18.5119 55.1508 18.2698 54.6417 18.2698 L 49.2586 18.2698 L 49.257 14.6027 L 54.5939 14.6027 C 54.8448 14.6027 55.044 14.4953 55.1882 14.2814 C 55.3332 14.0674 55.4057 13.8133 55.4057 13.5193 C 55.4057 13.2107 55.3332 12.9455 55.1906 12.7243 C 55.0488 12.5039 54.8497 12.3925 54.5939 12.3925 L 49.257 12.3933 L 49.257 8.7262 L 54.5915 8.7262 L 54.5915 8.7262 L 54.5915 8.7262 Z"
   id="path19"
   fill="#eb520d" />
	<path
   d="M 61.7766 8.7262 L 66.1519 8.7262 L 66.1527 18.096 C 66.1543 18.5103 66.1973 18.8212 66.2842 19.0304 C 66.3718 19.2379 66.5335 19.3838 66.7733 19.4695 C 67.0115 19.5529 67.3756 19.5961 67.864 19.5961 L 70.5519 19.5953 L 70.5487 8.7262 L 74.9041 8.7262 L 74.9041 23.4404 L 66.1543 23.4404 C 65.1561 23.4404 64.3586 23.3193 63.7579 23.0766 C 63.1573 22.8329 62.7175 22.4883 62.4379 22.0436 C 62.159 21.5972 61.9774 21.0771 61.8985 20.4849 C 61.8189 19.891 61.7782 19.1385 61.7782 18.2242 L 61.7766 8.7262 L 61.7766 8.7262 L 61.7766 8.7262 Z"
   id="path21"
   fill="#eb520d" />
	<path
   d="M 28.9389 8.7262 L 33.3747 8.7262 L 33.3747 12.3917 L 28.9405 12.3917 L 28.9389 8.7262 L 28.9389 8.7262 L 28.9389 8.7262 ZM 33.3747 14.2461 L 33.3747 23.4315 L 28.9413 23.4315 L 28.9405 14.2461 L 33.3747 14.2461 L 33.3747 14.2461 L 33.3747 14.2461 Z"
   id="path23"
   fill="#eb520d" />
	<path
   d="M 0 8.7262 L 12.6686 8.7262 L 12.6694 12.3909 L 0.0008 12.3909 L 0 8.7262 L 0 8.7262 L 0 8.7262 ZM 12.6694 14.2445 L 12.6694 17.9092 L 5.3767 17.9092 L 5.3767 19.7636 L 12.6702 19.7636 L 12.6702 23.4284 L 0.0016 23.4284 L 0.0008 14.2461 L 12.6694 14.2445 L 12.6694 14.2445 L 12.6694 14.2445 Z"
   id="path25"
   fill="#eb520d" />
	<path
   d="M 14.1464 12.3893 L 14.1456 8.7262 L 20.7492 8.7262 C 22.9105 8.7262 24.5413 9.3008 25.6399 10.4499 C 26.3577 11.1856 26.9018 12.0295 27.2715 12.9815 C 27.6419 13.9336 27.8371 14.9113 27.8586 15.917 C 27.8586 16.7729 27.7423 17.6015 27.5081 18.4029 C 27.2738 19.2066 26.948 19.9215 26.5266 20.5498 C 26.1083 21.1781 25.6232 21.6645 25.0743 22.0099 C 24.3214 22.4619 23.4761 22.8105 22.5409 23.0557 C 21.6056 23.3001 20.7093 23.4211 19.8513 23.4211 L 14.1472 23.4211 L 14.1464 14.1996 L 18.5344 14.1988 L 18.5344 19.891 C 19.6729 19.891 20.6113 19.7123 21.349 19.3525 C 22.0852 18.9943 22.6189 18.5247 22.9512 17.9469 C 23.2826 17.3691 23.4483 16.7376 23.4483 16.0516 C 23.4483 15.4113 23.3216 14.8119 23.0691 14.2501 C 22.8157 13.6875 22.4572 13.2372 21.9944 12.8974 C 21.5331 12.5584 21.0057 12.3893 20.4178 12.3893 L 14.1464 12.3893 L 14.1464 12.3893 L 14.1464 12.3893 Z"
   id="path27"
   fill="#eb520d" />
	<path
   d="M 82.3131 19.4775 C 82.3131 18.7859 82.1904 18.3484 81.9418 18.1665 C 81.6941 17.9829 81.2782 17.8916 80.6958 17.8916 L 76.3819 17.8916 L 76.3819 14.2357 L 82.3131 14.2357 C 82.5776 14.2357 82.7815 14.1491 82.9265 13.9752 C 83.0739 13.8005 83.1464 13.5865 83.1464 13.3325 C 83.1464 13.0601 83.0739 12.8349 82.9321 12.6553 C 82.7895 12.4759 82.5831 12.3861 82.3131 12.3861 L 76.3795 12.3861 L 76.3795 8.731 L 83.869 8.731 C 84.7278 8.731 85.4607 8.9257 86.0717 9.3136 C 86.682 9.7031 87.1425 10.2111 87.4548 10.8378 C 87.7639 11.4653 87.9176 12.128 87.92 12.8268 C 87.92 13.4407 87.7949 14.0177 87.544 14.5578 C 87.2954 15.0996 86.925 15.5331 86.4366 15.8593 C 85.9459 16.1854 85.3579 16.3489 84.6744 16.3489 C 84.6186 16.3489 84.574 16.3641 84.5461 16.3914 C 84.6354 16.4058 84.8616 16.4483 85.2209 16.5212 C 85.581 16.5918 85.9156 16.736 86.2279 16.9524 C 86.537 17.1696 86.6931 17.4829 86.6931 17.8916 L 86.6931 23.3971 L 82.3155 23.3971 L 82.3131 19.4775 L 82.3131 19.4775 L 82.3131 19.4775 Z"
   id="path29"
   fill="#eb520d" />
	<path
   d="M 96.6586 14.323 L 100.2946 14.323 L 100.2946 17.9781 L 96.6586 17.9781 L 96.6586 14.323 L 96.6586 14.323 L 96.6586 14.323 Z"
   id="path31"
   fill="#eb520d" />
	<path
   d="M 100.2922 12.4734 L 96.3105 12.4734 C 95.1529 12.4734 94.2638 12.8533 93.6449 13.613 C 93.0282 14.3719 92.7191 15.2839 92.7191 16.3489 C 92.7359 17.0157 92.8864 17.6416 93.1708 18.2282 C 93.452 18.8132 93.8647 19.2852 94.4056 19.6434 C 94.9442 20.0016 95.5799 20.1811 96.3105 20.1811 C 97.1382 20.1811 97.911 20.0096 98.6328 19.6651 C 99.3553 19.3213 99.9098 18.8332 100.2946 18.1985 L 100.2946 22.2728 C 99.4637 23.2272 98.1229 23.704 96.2683 23.704 C 95.0111 23.704 93.887 23.5149 92.8976 23.1342 C 91.9073 22.7552 91.0764 22.2135 90.4048 21.5114 C 89.73 20.8094 89.2225 19.9728 88.8768 19.0063 C 88.5334 18.0391 88.3606 16.9772 88.3606 15.8232 C 88.3606 14.9169 88.5111 14.045 88.8099 13.2075 C 89.1078 12.3709 89.5683 11.6216 90.1873 10.9612 C 90.8031 10.2993 91.5894 9.7776 92.5375 9.3937 C 93.4887 9.0098 94.5929 8.8183 95.85 8.8183 L 100.2922 8.8183 L 100.2922 12.4734 L 100.2922 12.4734 L 100.2922 12.4734 Z"
   id="path33"
   fill="#eb520d" />
	<path
   d="M 271.8957 10.974 C 273.0243 10.974 274.0725 11.2635 275.0436 11.8416 C 276.0166 12.4198 276.7866 13.2004 277.3581 14.1835 C 277.93 15.1667 278.2159 16.2287 278.2159 17.3672 C 278.2159 18.5167 277.93 19.5854 277.3581 20.5745 C 276.7888 21.5631 276.0166 22.3469 275.045 22.9259 C 274.0743 23.5054 273.0243 23.7949 271.897 23.7949 C 270.7541 23.7949 269.6932 23.5054 268.7162 22.9259 C 267.7387 22.3469 266.9669 21.5613 266.3968 20.5718 C 265.8253 19.5823 265.5411 18.5144 265.5411 17.3672 C 265.5411 16.2323 265.8253 15.1717 266.3954 14.1863 C 266.9651 13.2013 267.7387 12.4198 268.7162 11.8416 C 269.6932 11.2635 270.7527 10.974 271.8957 10.974 L 271.8957 10.974 L 271.8957 10.974 ZM 271.8957 14.6633 C 271.1551 14.6633 270.5254 14.9266 270.0026 15.4521 C 269.4785 15.9795 269.2164 16.6179 269.2182 17.3672 C 269.2182 17.8697 269.3382 18.3305 269.5764 18.7491 C 269.8149 19.1691 270.1415 19.4998 270.5551 19.7426 C 270.9688 19.9846 271.4158 20.1065 271.897 20.1065 C 272.6138 20.1065 273.2313 19.8392 273.7473 19.3059 C 274.262 18.7704 274.5209 18.1243 274.5209 17.3672 C 274.5209 16.8789 274.4027 16.4276 274.1659 16.0139 C 273.9291 15.598 273.6101 15.2691 273.2042 15.0267 C 272.8019 14.7848 272.3644 14.6633 271.8957 14.6633 L 271.8957 14.6633 L 271.8957 14.6633 Z"
   fill="#eb520d"
   id="path35" />
	<path
   d="M 285.3297 10.974 C 286.4569 10.974 287.5061 11.2631 288.4777 11.8407 C 289.4483 12.4189 290.2206 13.2 290.7898 14.1835 C 291.3626 15.1667 291.6486 16.2278 291.6486 17.3672 C 291.6486 18.5167 291.3626 19.5854 290.7921 20.5745 C 290.2206 21.5613 289.4492 22.3455 288.4777 22.9259 C 287.5061 23.5054 286.4569 23.7949 285.3297 23.7949 C 284.1881 23.7949 283.1271 23.5054 282.1501 22.9259 C 281.1732 22.3469 280.3991 21.5613 279.8295 20.5718 C 279.2589 19.5823 278.9747 18.5135 278.9747 17.3672 C 278.9738 16.231 279.2589 15.1717 279.8295 14.1863 C 280.3991 13.2004 281.1704 12.4189 282.1483 11.8407 C 283.1258 11.2631 284.1858 10.974 285.3297 10.974 L 285.3297 10.974 L 285.3297 10.974 ZM 285.3297 14.6629 C 284.5895 14.6629 283.9571 14.9257 283.4343 15.4521 C 282.912 15.9786 282.6499 16.6165 282.6499 17.3672 C 282.6499 17.8697 282.7708 18.3305 283.0089 18.7491 C 283.2489 19.1691 283.5742 19.4998 283.9869 19.7426 C 284.4005 19.9846 284.8488 20.1051 285.3297 20.1051 C 286.0473 20.1051 286.6643 19.8387 287.1813 19.305 C 287.6955 18.7704 287.9535 18.1243 287.9535 17.3672 C 287.9535 16.8789 287.8353 16.4276 287.5976 16.0121 C 287.3631 15.5976 287.0442 15.2691 286.6378 15.0267 C 286.2336 14.7839 285.797 14.6629 285.3297 14.6629 L 285.3297 14.6629 L 285.3297 14.6629 Z"
   fill="#eb520d"
   id="path37" />
	<path
   d="M 239.7972 13.1873 C 239.9077 13.4351 240.0214 13.667 240.1761 13.885 C 240.5171 14.3671 241.0381 15.0059 241.7372 15.8037 C 242.4382 16.6011 242.9547 17.288 243.2862 17.8624 C 243.6177 18.4383 243.785 19.064 243.785 19.7399 C 243.785 20.4069 243.597 21.0271 243.2243 21.5979 C 242.8505 22.167 242.3056 22.6224 241.5906 22.9585 C 240.8739 23.2947 240.034 23.4632 239.0692 23.4632 L 234.7467 23.4632 L 234.7453 20.4775 L 238.5974 20.4775 C 238.9334 20.4775 239.2162 20.3697 239.4436 20.1531 C 239.6723 19.9366 239.7877 19.6674 239.7877 19.3453 C 239.7877 19.0495 239.6836 18.7491 239.4783 18.4455 C 239.2365 18.1053 238.8121 17.5997 238.2009 16.9278 C 237.5915 16.2563 237.1337 15.733 236.8292 15.3606 C 236.5243 14.9868 236.2483 14.5424 235.9988 14.0236 C 235.7494 13.5058 235.6262 12.9657 235.6262 12.403 C 235.6262 12.2127 235.6799 11.9074 235.7904 11.4855 C 235.8833 11.1385 236.0286 10.7991 236.237 10.482 C 236.6114 9.9111 237.1558 9.4576 237.8712 9.1205 C 238.5879 8.7844 239.4278 8.6154 240.3908 8.6154 L 242.1414 8.6154 L 243.4138 11.6015 L 240.8644 11.6015 C 240.5266 11.6015 240.2456 11.7094 240.0164 11.9255 C 239.7891 12.142 239.6741 12.4116 239.6741 12.7337 C 239.6741 12.9009 239.7309 13.0174 239.7972 13.1873 L 239.7972 13.1873 L 239.7972 13.1873 Z"
   fill="#eb520d"
   id="path39" />
	<path
   d="M 250.7788 11.3034 L 252.9745 11.3034 L 252.9745 14.4083 L 252.1441 14.4083 C 251.4545 14.4083 250.7991 14.5002 250.182 14.6842 C 249.5663 14.8686 249.0611 15.1771 248.6696 15.6107 C 248.2762 16.0457 248.0792 16.6066 248.0792 17.2975 C 248.0805 18.1075 248.2573 18.7468 248.6128 19.2112 C 248.9677 19.6765 249.4382 19.9964 250.0273 20.1722 C 250.6146 20.3466 251.3074 20.4354 252.1049 20.4354 L 252.9763 20.4354 L 252.9763 23.4669 L 249.836 23.4669 C 248.8212 23.4669 247.9416 23.2684 247.2027 22.8711 C 246.4626 22.4746 245.869 21.9627 245.4206 21.3329 C 244.9736 20.705 244.6439 20.039 244.4337 19.3381 C 244.2253 18.6363 244.1166 17.9802 244.1085 17.3672 C 244.1085 16.197 244.3786 15.1504 244.9199 14.2279 C 245.4598 13.3069 246.2366 12.5888 247.2519 12.075 C 248.2636 11.5612 249.44 11.3034 250.7788 11.3034 L 250.7788 11.3034 L 250.7788 11.3034 Z"
   fill="#eb520d"
   id="path41" />
	<path
   d="M 296.1006 11.3025 L 296.1015 20.4341 L 300 20.4341 L 300 23.4659 L 292.4064 23.4659 L 292.4064 11.3025 L 296.1006 11.3025 L 296.1006 11.3025 L 296.1006 11.3025 Z"
   fill="#eb520d"
   id="path43" />
	<path
   d="M 264.9633 23.4419 L 264.9665 15.8526 L 257.7612 15.8526 L 257.758 11.2921 L 254.0891 11.2912 L 254.0877 23.4428 L 257.758 23.4428 L 257.758 19.488 L 261.266 19.488 L 261.2628 23.4419 L 264.9633 23.4419 L 264.9633 23.4419 L 264.9633 23.4419 Z"
   fill="#eb520d"
   id="path45" />
	<path
   d="M 264.9665 11.2953 L 261.2962 11.2953 L 261.2962 14.3249 L 264.9651 14.3258 L 264.9665 11.2953 L 264.9665 11.2953 L 264.9665 11.2953 Z"
   fill="#eb520d"
   id="path47" />
</svg>